<svg width="120" height="120" viewBox="0 0 120 120" fill="none" xmlns="http://www.w3.org/2000/svg">
<rect width="120" height="120" fill="white"/>
<rect x="10" y="10" width="30" height="30" fill="black"/>
<rect x="15" y="15" width="20" height="20" fill="white"/>
<rect x="20" y="20" width="10" height="10" fill="black"/>
<rect x="80" y="10" width="30" height="30" fill="black"/>
<rect x="85" y="15" width="20" height="20" fill="white"/>
<rect x="90" y="20" width="10" height="10" fill="black"/>
<rect x="10" y="80" width="30" height="30" fill="black"/>
<rect x="15" y="85" width="20" height="20" fill="white"/>
<rect x="20" y="90" width="10" height="10" fill="black"/>
<rect x="50" y="10" width="10" height="10" fill="black"/>
<rect x="70" y="10" width="10" height="10" fill="black"/>
<rect x="40" y="20" width="10" height="10" fill="black"/>
<rect x="60" y="20" width="10" height="10" fill="black"/>
<rect x="50" y="30" width="10" height="10" fill="black"/>
<rect x="70" y="30" width="10" height="10" fill="black"/>
<rect x="10" y="50" width="10" height="10" fill="black"/>
<rect x="30" y="50" width="10" height="10" fill="black"/>
<rect x="10" y="70" width="10" height="10" fill="black"/>
<rect x="30" y="70" width="10" height="10" fill="black"/>
<rect x="80" y="50" width="10" height="10" fill="black"/>
<rect x="100" y="50" width="10" height="10" fill="black"/>
<rect x="80" y="70" width="10" height="10" fill="black"/>
<rect x="100" y="70" width="10" height="10" fill="black"/>
<rect x="50" y="80" width="10" height="10" fill="black"/>
<rect x="70" y="80" width="10" height="10" fill="black"/>
<rect x="50" y="100" width="10" height="10" fill="black"/>
<rect x="70" y="100" width="10" height="10" fill="black"/>
<rect x="90" y="90" width="20" height="20" fill="black"/>
<rect x="60" y="60" width="10" height="10" fill="black"/>
<rect x="50" y="50" width="10" height="10" fill="black"/>
</svg>
